<svg width="339" height="37" viewBox="0 0 339 37" fill="none" xmlns="http://www.w3.org/2000/svg">
<g clip-path="url(#clip0)">
<path d="M60.0817 20.8124H80.417V15.7249H60.0817V5.5499H83.19V0.462402H54.5356V36.5374H83.6522V31.6812H60.0817V20.8124Z" fill="#F0EFEF"/>
<path d="M110.227 20.8124H130.331V15.7249H110.227V5.5499H133.336V0.462402H104.681V36.5374H133.798V31.6812H110.227V20.8124Z" fill="#F0EFEF"/>
<path d="M171.233 0.462402H154.826V36.5374H171.233C176.779 36.5374 181.17 34.9187 184.174 31.6812C187.409 28.4437 188.795 24.0499 188.795 18.4999C188.795 12.9499 187.178 8.55615 184.174 5.31865C181.17 2.08115 176.779 0.462402 171.233 0.462402ZM180.245 27.7499C178.166 30.0624 175.162 31.2187 171.233 31.2187H160.603V5.5499H171.002C174.93 5.5499 177.935 6.70615 180.014 9.01865C182.094 11.3312 183.018 14.3374 183.018 18.2687C183.249 22.1999 182.094 25.4374 180.245 27.7499Z" fill="#F0EFEF"/>
<path d="M204.278 5.5499H218.374V36.5374H223.92V5.5499H238.248V0.462402H204.278V5.5499Z" fill="#F0EFEF"/>
<path d="M263.898 0.462402L248.415 36.5374H254.654L258.583 27.2874H276.376L280.305 36.5374H286.313L270.83 0.462402H263.898ZM260.431 22.4312L267.133 6.70615H267.595L274.296 22.4312H260.431Z" fill="#F0EFEF"/>
<path d="M320.745 17.3438V21.9688H333.454C333.223 27.2876 327.908 32.1438 320.976 32.1438C316.585 32.1438 313.119 30.9876 310.577 28.6751C308.266 26.3626 307.111 23.1251 307.111 19.4251C307.111 15.2626 308.266 12.0251 310.808 9.48132C313.35 6.93757 317.047 5.55007 321.438 5.55007C324.211 5.55007 326.753 6.01257 328.601 7.16882C330.219 8.09382 331.606 9.48132 332.299 10.8688H338.538C337.845 7.86257 335.996 5.31882 333.223 3.46882C330.219 1.38757 326.291 0.231323 321.669 0.231323C315.43 0.231323 310.577 2.08132 306.88 5.55007C303.182 9.25007 301.333 13.6438 301.333 19.1938C301.333 24.5126 302.951 28.9063 306.417 32.1438C309.884 35.3813 314.505 37.0001 320.513 37.0001C332.299 37.0001 339 29.3688 339 21.7376V17.3438H320.745Z" fill="#F0EFEF"/>
<path d="M33.045 10.4062C32.5828 4.625 27.499 0 17.1002 0C6.70143 0 1.3865 4.39375 1.3865 10.4062C1.3865 16.4187 6.93252 19.1937 16.1759 20.5812C25.1881 21.7375 27.7301 24.5125 27.7301 26.825C27.7301 29.3688 25.8814 32.1437 17.5624 32.1437C9.24335 32.1437 6.47035 28.9062 6.00818 25.9H0C0.462168 32.6063 6.23926 37 17.3313 37C27.9611 37 33.5072 32.8375 33.5072 26.825C33.5072 20.35 27.7301 17.1125 19.8732 15.9563C12.7096 14.8 7.1636 13.875 7.1636 9.94375C7.1636 8.325 8.5501 4.85625 17.1002 4.85625C25.1881 4.85625 26.8057 8.325 27.0368 10.4062H33.045Z" fill="#F0EFEF"/>
</g>
<defs>
<clipPath id="clip0">
<rect width="339" height="37" fill="white"/>
</clipPath>
</defs>
</svg>
